# xmcd CD database file
#
# Track frame offsets:
#	150
#	22227
#	44968
#	78700
#	90534
#	105522
#	121190
#	133304
#	148224
#	162258
#
# Disc length: 2479 seconds
#
# Revision: 0
# Processed by: cddbd v1.5.2PL0 Copyright (c) Steve Scherf et al.
# Submitted via: CDex 1.95
#
DISCID=9309ad0a
DTITLE=Ray Charles - The Greatest
DYEAR=1900
DGENRE=Blues
TTITLE0=What'd I Say [live]
TTITLE1=I've Got A Woman [live]
TTITLE2=Georgia On My Mind [live]
TTITLE3=Hit The Road Jack [live]
TTITLE4=Let's Go Get Stoned [live]
TTITLE5=You Are My Sunshine [live]
TTITLE6=Mess Around
TTITLE7=Hallelugah, I Love Her So Much [live]
TTITLE8=Crying Time [live]
TTITLE9=night time is the right time
EXTD=
EXTT0=
EXTT1=
EXTT2=
EXTT3=
EXTT4=
EXTT5=
EXTT6=
EXTT7=
EXTT8=
EXTT9=
PLAYORDER=
